# xmcd
#
# Track frame offsets:
#	150
#	16860
#	34897
#	51957
#	66360
#	82065
#	98610
#	114417
#	132082
#	148697
#	166730
#	183795
#	198205
#	213845
#	230395
#	246195
#
# Disc length: 3517 seconds
#
# Revision: 1
# Processed by: cddbd v1.5.1PL2 Copyright (c) Steve Scherf et al.
# Submitted via: audiograbber 1.83.01
#
DISCID=d10dbb10
DTITLE=Various Artist - Sc3100
DYEAR=1900
DGENRE=Country
TTITLE0=Carter, Deana - Absence Of The Heart
TTITLE1=Brown, T. Graham - Wine Into Water
TTITLE2=Keith, Toby - Getcha Some
TTITLE3=Diffie, Joe - Poor Me
TTITLE4=McBride, Martina - Wrong Again
TTITLE5=Chesnutt, Mark - Wherever You Are
TTITLE6=Brooks and Dunn - Husbands and Wives
TTITLE7=Restless Heart - For Lack Of Better Words
TTITLE8=Carter, Deana (Vocal) - Absence Of The Heart
TTITLE9=Brown, T. Graham  (Vocal) - Wine Into Water
TTITLE10=Keith, Toby  (Vocal) - Getcha Some
TTITLE11=Diffie, Joe  (Vocal) - Poor Me
TTITLE12=McBride, Martina  (Vocal) - Wrong Again
TTITLE13=Chesnutt, Mark  (Vocal) - Wherever You Are
TTITLE14=Brooks and Dunn  (Vocal) - Husbands and Wives
TTITLE15=Restless Heart  (Vocal) - For Lack Of Better Words
EXTD=
EXTT0=
EXTT1=
EXTT2=
EXTT3=
EXTT4=
EXTT5=
EXTT6=
EXTT7=
EXTT8=
EXTT9=
EXTT10=
EXTT11=
EXTT12=
EXTT13=
EXTT14=
EXTT15=
PLAYORDER=
